<?xml version="1.0" encoding="UTF-8" standalone="no"?>
<!DOCTYPE svg PUBLIC "-//W3C//DTD SVG 1.1//EN"
 "http://www.w3.org/Graphics/SVG/1.1/DTD/svg11.dtd">
<!-- Generated by graphviz version 2.40.1 (20161225.0304)
 -->
<!-- Title: state transitions Pages: 1 -->
<svg width="744pt" height="352pt"
 viewBox="0.00 0.00 744.00 352.00" xmlns="http://www.w3.org/2000/svg" xmlns:xlink="http://www.w3.org/1999/xlink">
<g id="graph0" class="graph" transform="scale(1 1) rotate(0) translate(4 348)">
<title>state transitions</title>
<polygon fill="#ffffff" stroke="transparent" points="-4,4 -4,-348 740,-348 740,4 -4,4"/>
<g id="clust1" class="cluster state regular">
<title>cluster_state</title>
<path fill="none" stroke="#000000" stroke-width="2" d="M20,-8C20,-8 716,-8 716,-8 722,-8 728,-14 728,-20 728,-20 728,-324 728,-324 728,-330 722,-336 716,-336 716,-336 20,-336 20,-336 14,-336 8,-330 8,-324 8,-324 8,-20 8,-20 8,-14 14,-8 20,-8"/>
<text text-anchor="start" x="354.9944" y="-317.2" font-family="Helvetica,sans-Serif" font-size="12.00" fill="#000000">state</text>
</g>
<!-- state -->
<!-- initial -->
<g id="node2" class="node state regular">
<title>initial</title>
<polygon fill="#ffffff" fill-opacity="0.003922" stroke="transparent" stroke-width="2" points="360,-298 304,-298 304,-262 360,-262 360,-298"/>
<text text-anchor="start" x="318.3362" y="-276.2" font-family="Helvetica,sans-Serif" font-size="12.00" fill="#000000">initial</text>
<path fill="none" stroke="#000000" stroke-width="2" d="M316.3333,-263C316.3333,-263 347.6667,-263 347.6667,-263 353.3333,-263 359,-268.6667 359,-274.3333 359,-274.3333 359,-285.6667 359,-285.6667 359,-291.3333 353.3333,-297 347.6667,-297 347.6667,-297 316.3333,-297 316.3333,-297 310.6667,-297 305,-291.3333 305,-285.6667 305,-285.6667 305,-274.3333 305,-274.3333 305,-268.6667 310.6667,-263 316.3333,-263"/>
</g>
<!-- initial&#45;&gt;initial -->
<g id="edge2" class="edge transition">
<title>initial&#45;&gt;initial</title>
<path fill="none" stroke="#000000" d="M360.0183,-284.8247C371.888,-285.1883 382,-283.5801 382,-280 382,-277.5387 377.2205,-276.0094 370.3762,-275.4121"/>
<polygon fill="#000000" stroke="#000000" points="370.0957,-271.9049 360.0183,-275.1753 369.9356,-278.903 370.0957,-271.9049"/>
<text text-anchor="start" x="382" y="-277" font-family="Helvetica,sans-Serif" font-size="10.00" fill="#000000">not (party1 = &#39;1&#39; or party2 = &#39;1&#39; or party3 = &#39;1&#39;) &#160;&#160;</text>
</g>
<!-- check -->
<g id="node3" class="node state regular">
<title>check</title>
<polygon fill="#ffffff" fill-opacity="0.003922" stroke="transparent" stroke-width="2" points="350,-216 294,-216 294,-180 350,-180 350,-216"/>
<text text-anchor="start" x="306.3292" y="-194.2" font-family="Helvetica,sans-Serif" font-size="12.00" fill="#000000">check</text>
<path fill="none" stroke="#000000" stroke-width="2" d="M306.3333,-181C306.3333,-181 337.6667,-181 337.6667,-181 343.3333,-181 349,-186.6667 349,-192.3333 349,-192.3333 349,-203.6667 349,-203.6667 349,-209.3333 343.3333,-215 337.6667,-215 337.6667,-215 306.3333,-215 306.3333,-215 300.6667,-215 295,-209.3333 295,-203.6667 295,-203.6667 295,-192.3333 295,-192.3333 295,-186.6667 300.6667,-181 306.3333,-181"/>
</g>
<!-- initial&#45;&gt;check -->
<g id="edge1" class="edge transition">
<title>initial&#45;&gt;check</title>
<path fill="none" stroke="#000000" d="M329.7807,-261.8015C328.5119,-251.3976 326.8929,-238.1215 325.4606,-226.3768"/>
<polygon fill="#000000" stroke="#000000" points="328.898,-225.6503 324.2131,-216.1476 321.9495,-226.4978 328.898,-225.6503"/>
<text text-anchor="start" x="327" y="-236" font-family="Helvetica,sans-Serif" font-size="10.00" fill="#000000">party1 = &#39;1&#39; or party2 = &#39;1&#39; or party3 = &#39;1&#39; &#160;&#160;</text>
</g>
<!-- check&#45;&gt;check -->
<g id="edge6" class="edge transition">
<title>check&#45;&gt;check</title>
<path fill="none" stroke="#000000" d="M350.0183,-202.8247C361.888,-203.1883 372,-201.5801 372,-198 372,-195.5387 367.2205,-194.0094 360.3762,-193.4121"/>
<polygon fill="#000000" stroke="#000000" points="360.0957,-189.9049 350.0183,-193.1753 359.9356,-196.903 360.0957,-189.9049"/>
<text text-anchor="start" x="372" y="-207" font-family="Helvetica,sans-Serif" font-size="10.00" fill="#000000">not (party1 = &#39;1&#39;) &#160;&#160;</text>
<text text-anchor="start" x="372" y="-195" font-family="Helvetica,sans-Serif" font-size="10.00" fill="#000000">not (party2 = &#39;1&#39;) &#160;&#160;</text>
<text text-anchor="start" x="372" y="-183" font-family="Helvetica,sans-Serif" font-size="10.00" fill="#000000">not (party3 = &#39;1&#39;) &#160;&#160;</text>
</g>
<!-- party1_state -->
<g id="node4" class="node state regular">
<title>party1_state</title>
<polygon fill="#ffffff" fill-opacity="0.003922" stroke="transparent" stroke-width="2" points="104,-134 16,-134 16,-98 104,-98 104,-134"/>
<text text-anchor="start" x="26.988" y="-112.2" font-family="Helvetica,sans-Serif" font-size="12.00" fill="#000000">party1_state</text>
<path fill="none" stroke="#000000" stroke-width="2" d="M28.3333,-99C28.3333,-99 91.6667,-99 91.6667,-99 97.3333,-99 103,-104.6667 103,-110.3333 103,-110.3333 103,-121.6667 103,-121.6667 103,-127.3333 97.3333,-133 91.6667,-133 91.6667,-133 28.3333,-133 28.3333,-133 22.6667,-133 17,-127.3333 17,-121.6667 17,-121.6667 17,-110.3333 17,-110.3333 17,-104.6667 22.6667,-99 28.3333,-99"/>
</g>
<!-- check&#45;&gt;party1_state -->
<g id="edge3" class="edge transition">
<title>check&#45;&gt;party1_state</title>
<path fill="none" stroke="#000000" d="M293.9614,-189.2246C251.211,-175.8447 168.9406,-150.0959 114.2465,-132.9779"/>
<polygon fill="#000000" stroke="#000000" points="114.9595,-129.5337 104.3706,-129.887 112.8687,-136.2142 114.9595,-129.5337"/>
<text text-anchor="start" x="208" y="-154" font-family="Helvetica,sans-Serif" font-size="10.00" fill="#000000">party1 = &#39;1&#39; &#160;&#160;</text>
</g>
<!-- party2_state -->
<g id="node5" class="node state regular">
<title>party2_state</title>
<polygon fill="#ffffff" fill-opacity="0.003922" stroke="transparent" stroke-width="2" points="338,-134 250,-134 250,-98 338,-98 338,-134"/>
<text text-anchor="start" x="260.988" y="-112.2" font-family="Helvetica,sans-Serif" font-size="12.00" fill="#000000">party2_state</text>
<path fill="none" stroke="#000000" stroke-width="2" d="M262.3333,-99C262.3333,-99 325.6667,-99 325.6667,-99 331.3333,-99 337,-104.6667 337,-110.3333 337,-110.3333 337,-121.6667 337,-121.6667 337,-127.3333 331.3333,-133 325.6667,-133 325.6667,-133 262.3333,-133 262.3333,-133 256.6667,-133 251,-127.3333 251,-121.6667 251,-121.6667 251,-110.3333 251,-110.3333 251,-104.6667 256.6667,-99 262.3333,-99"/>
</g>
<!-- check&#45;&gt;party2_state -->
<g id="edge4" class="edge transition">
<title>check&#45;&gt;party2_state</title>
<path fill="none" stroke="#000000" d="M315.7859,-179.8015C312.1608,-169.1853 307.5146,-155.5784 303.4448,-143.6596"/>
<polygon fill="#000000" stroke="#000000" points="306.7405,-142.4801 300.1967,-134.1476 300.116,-144.7421 306.7405,-142.4801"/>
<text text-anchor="start" x="309" y="-154" font-family="Helvetica,sans-Serif" font-size="10.00" fill="#000000">party2 = &#39;1&#39; &#160;&#160;</text>
</g>
<!-- party3_state -->
<g id="node6" class="node state regular">
<title>party3_state</title>
<polygon fill="#ffffff" fill-opacity="0.003922" stroke="transparent" stroke-width="2" points="572,-134 484,-134 484,-98 572,-98 572,-134"/>
<text text-anchor="start" x="494.988" y="-112.2" font-family="Helvetica,sans-Serif" font-size="12.00" fill="#000000">party3_state</text>
<path fill="none" stroke="#000000" stroke-width="2" d="M496.3333,-99C496.3333,-99 559.6667,-99 559.6667,-99 565.3333,-99 571,-104.6667 571,-110.3333 571,-110.3333 571,-121.6667 571,-121.6667 571,-127.3333 565.3333,-133 559.6667,-133 559.6667,-133 496.3333,-133 496.3333,-133 490.6667,-133 485,-127.3333 485,-121.6667 485,-121.6667 485,-110.3333 485,-110.3333 485,-104.6667 490.6667,-99 496.3333,-99"/>
</g>
<!-- check&#45;&gt;party3_state -->
<g id="edge5" class="edge transition">
<title>check&#45;&gt;party3_state</title>
<path fill="none" stroke="#000000" d="M350.2115,-186.7702C382.1417,-174.0601 434.8765,-153.0686 474.6395,-137.2406"/>
<polygon fill="#000000" stroke="#000000" points="475.9387,-140.4906 483.9352,-133.5404 473.3498,-133.9869 475.9387,-140.4906"/>
<text text-anchor="start" x="438" y="-154" font-family="Helvetica,sans-Serif" font-size="10.00" fill="#000000">party3 = &#39;1&#39; &#160;&#160;</text>
</g>
<!-- party1_state&#45;&gt;party1_state -->
<g id="edge8" class="edge transition">
<title>party1_state&#45;&gt;party1_state</title>
<path fill="none" stroke="#000000" d="M104.1067,-120.8509C116.4925,-120.6385 126,-119.0215 126,-116 126,-113.8755 121.2996,-112.4454 114.2033,-111.7097"/>
<polygon fill="#000000" stroke="#000000" points="114.2854,-108.2089 104.1067,-111.1491 113.8973,-115.1982 114.2854,-108.2089"/>
<text text-anchor="start" x="126" y="-113" font-family="Helvetica,sans-Serif" font-size="10.00" fill="#000000">not (select_party = &#39;1&#39;) &#160;&#160;</text>
</g>
<!-- done -->
<g id="node7" class="node state regular">
<title>done</title>
<polygon fill="#ffffff" fill-opacity="0.003922" stroke="transparent" stroke-width="2" points="413,-52 357,-52 357,-16 413,-16 413,-52"/>
<text text-anchor="start" x="371.6584" y="-30.2" font-family="Helvetica,sans-Serif" font-size="12.00" fill="#000000">done</text>
<path fill="none" stroke="#000000" stroke-width="2" d="M369.3333,-17C369.3333,-17 400.6667,-17 400.6667,-17 406.3333,-17 412,-22.6667 412,-28.3333 412,-28.3333 412,-39.6667 412,-39.6667 412,-45.3333 406.3333,-51 400.6667,-51 400.6667,-51 369.3333,-51 369.3333,-51 363.6667,-51 358,-45.3333 358,-39.6667 358,-39.6667 358,-28.3333 358,-28.3333 358,-22.6667 363.6667,-17 369.3333,-17"/>
</g>
<!-- party1_state&#45;&gt;done -->
<g id="edge7" class="edge transition">
<title>party1_state&#45;&gt;done</title>
<path fill="none" stroke="#000000" d="M104.3181,-104.629C141.6573,-95.0664 196.4962,-81.0641 244.388,-69 279.1503,-60.2433 318.7809,-50.3906 347.0889,-43.3752"/>
<polygon fill="#000000" stroke="#000000" points="348.1107,-46.728 356.9758,-40.9263 346.4277,-39.9333 348.1107,-46.728"/>
<text text-anchor="start" x="244" y="-72" font-family="Helvetica,sans-Serif" font-size="10.00" fill="#000000">select_party = &#39;1&#39; &#160;&#160;</text>
</g>
<!-- party2_state&#45;&gt;party2_state -->
<g id="edge10" class="edge transition">
<title>party2_state&#45;&gt;party2_state</title>
<path fill="none" stroke="#000000" d="M338.1067,-120.8509C350.4925,-120.6385 360,-119.0215 360,-116 360,-113.8755 355.2996,-112.4454 348.2033,-111.7097"/>
<polygon fill="#000000" stroke="#000000" points="348.2854,-108.2089 338.1067,-111.1491 347.8973,-115.1982 348.2854,-108.2089"/>
<text text-anchor="start" x="360" y="-113" font-family="Helvetica,sans-Serif" font-size="10.00" fill="#000000">not (select_party = &#39;1&#39;) &#160;&#160;</text>
</g>
<!-- party2_state&#45;&gt;done -->
<g id="edge9" class="edge transition">
<title>party2_state&#45;&gt;done</title>
<path fill="none" stroke="#000000" d="M314.1958,-97.8015C326.802,-86.4422 343.2079,-71.6588 357.0529,-59.1831"/>
<polygon fill="#000000" stroke="#000000" points="359.7747,-61.4419 364.8606,-52.1476 355.0887,-56.2417 359.7747,-61.4419"/>
<text text-anchor="start" x="345" y="-72" font-family="Helvetica,sans-Serif" font-size="10.00" fill="#000000">select_party = &#39;1&#39; &#160;&#160;</text>
</g>
<!-- party3_state&#45;&gt;party3_state -->
<g id="edge12" class="edge transition">
<title>party3_state&#45;&gt;party3_state</title>
<path fill="none" stroke="#000000" d="M572.1067,-120.8509C584.4925,-120.6385 594,-119.0215 594,-116 594,-113.8755 589.2996,-112.4454 582.2033,-111.7097"/>
<polygon fill="#000000" stroke="#000000" points="582.2854,-108.2089 572.1067,-111.1491 581.8973,-115.1982 582.2854,-108.2089"/>
<text text-anchor="start" x="594" y="-113" font-family="Helvetica,sans-Serif" font-size="10.00" fill="#000000">not (select_party = &#39;1&#39;) &#160;&#160;</text>
</g>
<!-- party3_state&#45;&gt;done -->
<g id="edge11" class="edge transition">
<title>party3_state&#45;&gt;done</title>
<path fill="none" stroke="#000000" d="M496.2637,-97.8015C474.3262,-85.222 445.0661,-68.4435 422.0579,-55.25"/>
<polygon fill="#000000" stroke="#000000" points="423.6736,-52.1419 413.2575,-50.2036 420.1914,-58.2144 423.6736,-52.1419"/>
<text text-anchor="start" x="466" y="-72" font-family="Helvetica,sans-Serif" font-size="10.00" fill="#000000">select_party = &#39;1&#39; &#160;&#160;</text>
</g>
<!-- done&#45;&gt;initial -->
<g id="edge13" class="edge transition">
<title>done&#45;&gt;initial</title>
<path fill="none" stroke="#000000" d="M413.2209,-35.5256C484.1221,-39.9688 666.9196,-55.398 707,-98 729.5902,-122.0114 717,-138.5324 717,-171.5 717,-239 717,-239 717,-239 717,-256.3082 467.7182,-272.3087 370.3311,-277.8992"/>
<polygon fill="#000000" stroke="#000000" points="370.0954,-274.4069 360.31,-278.4684 370.4924,-281.3956 370.0954,-274.4069"/>
<text text-anchor="middle" x="719.3895" y="-154" font-family="Helvetica,sans-Serif" font-size="10.00" fill="#000000"> </text>
</g>
</g>
</svg>
